<?xml version="1.0" standalone="no"?>
<!DOCTYPE svg PUBLIC "-//W3C//DTD SVG 20010904//EN"
 "http://www.w3.org/TR/2001/REC-SVG-20010904/DTD/svg10.dtd">
<svg version="1.0" xmlns="http://www.w3.org/2000/svg"
 width="414.000000pt" height="414.000000pt" viewBox="0 0 414.000000 414.000000"
 preserveAspectRatio="xMidYMid meet">
<metadata>
Created by potrace 1.11, written by Peter Selinger 2001-2013
</metadata>
<g transform="translate(0.000000,414.000000) scale(0.100000,-0.100000)"
fill="#000000" stroke="none">
<path d="M2003 3974 c-13 -3 -23 -10 -23 -15 0 -5 -13 -9 -30 -9 -16 0 -30 -4
-30 -10 0 -5 -8 -10 -18 -10 -10 0 -24 -9 -32 -20 -8 -11 -21 -20 -30 -20 -9
0 -22 -9 -30 -20 -8 -11 -20 -20 -27 -20 -16 0 -163 -147 -163 -163 0 -7 -9
-19 -20 -27 -11 -8 -20 -22 -20 -32 0 -10 -4 -18 -10 -18 -5 0 -10 -9 -10 -20
0 -11 -4 -20 -10 -20 -5 0 -10 -13 -10 -30 l0 -30 -164 0 c-99 0 -167 -4 -171
-10 -3 -5 -19 -10 -36 -10 -16 0 -29 -4 -29 -10 0 -5 -13 -10 -30 -10 -16 0
-30 -4 -30 -10 0 -5 -9 -10 -20 -10 -11 0 -20 -4 -20 -10 0 -5 -7 -10 -14 -10
-8 0 -35 -19 -60 -43 -41 -38 -46 -48 -46 -86 0 -36 6 -49 34 -77 21 -21 44
-34 60 -34 14 0 26 -4 26 -10 0 -5 14 -10 30 -10 17 0 30 -2 30 -5 0 -10 -49
-55 -59 -55 -13 0 -141 -128 -141 -141 0 -10 -65 -79 -75 -79 -3 0 -5 9 -5 20
0 11 -4 20 -10 20 -5 0 -10 9 -10 20 0 11 -4 20 -10 20 -5 0 -10 14 -10 30 0
17 -4 30 -10 30 -5 0 -10 18 -10 40 0 22 -4 40 -10 40 -6 0 -10 47 -10 120 0
73 4 120 10 120 6 0 10 18 10 40 0 22 5 40 10 40 6 0 10 9 10 20 0 11 5 20 10
20 6 0 10 14 10 30 0 17 5 30 10 30 6 0 10 30 10 70 0 39 -4 70 -9 70 -5 0
-13 9 -16 21 -12 36 -92 79 -148 79 -42 0 -58 -6 -98 -37 -27 -20 -49 -40 -49
-43 0 -3 -22 -31 -50 -61 -27 -29 -50 -60 -50 -66 0 -7 -4 -13 -10 -13 -5 0
-10 -8 -10 -18 0 -10 -9 -24 -20 -32 -11 -8 -20 -22 -20 -32 0 -10 -4 -18 -10
-18 -5 0 -10 -9 -10 -20 0 -11 -4 -20 -10 -20 -5 0 -10 -9 -10 -20 0 -11 -4
-20 -8 -20 -5 0 -15 -23 -22 -51 -8 -27 -18 -52 -22 -55 -4 -3 -8 -16 -8 -29
0 -13 -4 -27 -10 -30 -5 -3 -10 -22 -10 -41 0 -19 -4 -34 -10 -34 -5 0 -10
-22 -10 -48 0 -26 -5 -53 -10 -58 -7 -7 -9 -78 -6 -205 4 -203 12 -288 27
-304 5 -5 9 -18 9 -29 0 -21 17 -80 31 -108 5 -10 9 -25 9 -33 0 -8 5 -15 10
-15 6 0 10 -8 10 -19 0 -36 127 -254 182 -313 7 -7 31 -35 53 -63 47 -59 94
-105 107 -105 5 0 20 -11 34 -25 14 -14 37 -33 52 -43 48 -31 72 -55 72 -74 0
-10 5 -18 10 -18 6 0 10 -9 10 -20 0 -11 4 -28 9 -38 5 -9 15 -30 22 -46 8
-16 20 -31 29 -34 26 -10 40 -30 40 -56 0 -15 5 -34 10 -44 6 -9 21 -53 34
-97 44 -152 100 -285 119 -285 11 0 37 -26 37 -37 0 -5 17 -17 38 -28 47 -25
62 -39 62 -59 0 -9 5 -16 10 -16 6 0 10 -9 10 -20 0 -11 5 -20 10 -20 6 0 10
-9 10 -20 0 -11 5 -20 10 -20 6 0 10 -6 10 -12 0 -34 194 -228 227 -228 7 0
13 -4 13 -10 0 -5 9 -10 20 -10 11 0 20 -3 20 -8 0 -11 75 -32 115 -32 27 0
44 -8 70 -35 19 -19 35 -41 35 -50 0 -8 5 -15 10 -15 6 0 10 -13 10 -30 0 -16
5 -30 10 -30 6 0 10 -18 10 -40 0 -22 5 -40 10 -40 6 0 10 -7 10 -15 0 -25 49
-37 125 -32 70 5 92 11 175 51 69 32 260 192 260 217 0 19 31 43 39 31 8 -13
113 21 119 38 2 6 9 10 16 10 34 0 219 192 253 262 10 21 21 38 26 38 4 0 7 9
7 20 0 11 4 20 8 20 5 0 15 22 22 50 7 27 17 50 22 50 4 0 8 9 8 20 0 16 7 20
30 20 17 0 30 -5 30 -11 0 -6 9 -9 21 -7 29 4 91 125 146 286 25 72 32 106 49
237 6 45 12 54 57 90 27 22 55 45 61 50 6 6 27 22 46 35 19 13 41 30 48 37 7
7 17 13 21 13 16 0 154 146 221 235 73 95 170 265 170 297 0 10 5 18 10 18 6
0 10 14 10 30 0 17 5 30 10 30 6 0 10 14 10 30 0 17 5 30 10 30 6 0 10 17 10
38 0 21 6 44 13 51 17 17 17 523 -1 529 -7 2 -12 21 -12 43 0 21 -4 39 -10 39
-5 0 -10 14 -10 30 0 17 -4 30 -10 30 -5 0 -10 14 -10 30 0 17 -4 30 -10 30
-5 0 -10 14 -10 30 0 17 -4 30 -10 30 -5 0 -10 9 -10 20 0 11 -4 20 -10 20 -5
0 -10 9 -10 20 0 11 -4 20 -10 20 -5 0 -10 9 -10 20 0 11 -4 20 -10 20 -5 0
-10 8 -10 18 0 10 -9 24 -20 32 -11 8 -20 21 -20 30 0 9 -9 22 -20 30 -11 8
-20 20 -20 27 0 17 -128 143 -146 143 -7 0 -14 5 -14 10 0 6 -27 10 -60 10
-33 0 -60 -4 -60 -10 0 -5 -7 -10 -15 -10 -9 0 -32 -16 -52 -36 -35 -36 -36
-38 -37 -117 -1 -56 3 -82 12 -84 6 -3 12 -18 12 -34 0 -16 5 -29 10 -29 6 0
10 -13 10 -30 0 -16 5 -30 10 -30 6 0 10 -30 10 -70 0 -40 4 -70 10 -70 6 0
10 -18 10 -40 0 -22 -4 -40 -10 -40 -6 0 -10 -27 -10 -60 0 -33 -4 -60 -10
-60 -5 0 -10 -13 -10 -30 0 -16 -4 -30 -10 -30 -5 0 -10 -7 -10 -16 0 -8 -7
-22 -15 -30 -17 -18 -30 -9 -54 39 -8 15 -18 27 -23 27 -4 0 -8 6 -8 14 0 7
-49 64 -110 125 -60 61 -110 114 -110 116 0 3 6 5 13 5 6 0 25 12 42 26 27 23
30 31 30 83 l0 58 -89 86 c-48 48 -94 87 -102 87 -8 0 -14 5 -14 10 0 6 -9 10
-20 10 -11 0 -20 5 -20 10 0 6 -9 10 -20 10 -11 0 -20 5 -20 10 0 6 -9 10 -20
10 -11 0 -20 3 -20 8 0 9 -72 32 -100 32 -11 0 -20 5 -20 10 0 6 -67 10 -180
10 -113 0 -180 -4 -180 -10 0 -5 -18 -10 -40 -10 -22 0 -40 -4 -40 -10 0 -5
-9 -10 -20 -10 -13 0 -20 7 -20 20 0 11 5 20 10 20 6 0 10 9 10 20 0 11 5 20
10 20 6 0 10 9 10 20 0 11 5 20 10 20 6 0 10 25 10 55 0 75 -28 105 -103 110
-29 2 -62 1 -74 -1z m-1317 -338 c16 -16 19 -86 4 -86 -5 0 -10 -13 -10 -30 0
-16 -4 -30 -10 -30 -5 0 -10 -13 -10 -30 0 -16 -4 -30 -10 -30 -5 0 -10 -22
-10 -50 0 -27 -4 -50 -10 -50 -6 0 -10 -43 -10 -110 0 -67 4 -110 10 -110 6 0
10 -22 10 -50 0 -27 5 -50 10 -50 6 0 10 -13 10 -30 0 -16 5 -30 10 -30 6 0
10 -9 10 -20 0 -11 5 -20 10 -20 6 0 10 -13 10 -28 0 -16 8 -34 20 -42 11 -8
20 -22 20 -32 0 -10 5 -18 10 -18 6 0 10 -18 10 -40 0 -22 -4 -40 -10 -40 -5
0 -10 -18 -10 -40 0 -22 -4 -40 -10 -40 -6 0 -10 -28 -10 -65 0 -57 3 -69 25
-90 13 -14 31 -25 40 -25 8 0 15 -4 15 -10 0 -5 -4 -10 -10 -10 -5 0 -10 -18
-10 -40 0 -22 -4 -40 -10 -40 -5 0 -10 -18 -10 -40 0 -22 -4 -40 -10 -40 -6 0
-10 -70 -10 -190 0 -104 -2 -190 -5 -190 -11 0 -195 190 -195 201 0 6 -14 24
-30 39 -17 15 -30 35 -30 44 0 9 -4 16 -10 16 -5 0 -10 9 -10 20 0 11 -4 20
-10 20 -5 0 -10 9 -10 20 0 11 -4 20 -10 20 -5 0 -10 9 -10 20 0 11 -4 20 -10
20 -5 0 -10 9 -10 20 0 11 -4 20 -10 20 -5 0 -10 9 -10 20 0 11 -4 20 -10 20
-5 0 -10 14 -10 30 0 17 -4 30 -10 30 -5 0 -10 14 -10 30 0 17 -4 30 -10 30
-5 0 -10 23 -10 50 0 28 -4 50 -10 50 -6 0 -10 77 -10 210 0 133 4 210 10 210
6 0 10 23 10 50 0 28 5 50 10 50 6 0 10 14 10 30 0 17 5 30 10 30 6 0 10 14
10 30 0 17 5 30 10 30 6 0 10 14 10 30 0 17 5 30 10 30 6 0 10 9 10 20 0 11 5
20 10 20 6 0 10 9 10 20 0 11 5 20 10 20 6 0 10 8 10 18 0 10 9 24 20 32 11 8
20 21 20 30 0 9 9 22 20 30 11 8 20 20 20 27 0 8 24 38 53 67 54 56 86 68 113
42z m2799 -21 c19 -19 35 -39 35 -46 0 -6 14 -24 30 -39 17 -15 30 -35 30 -44
0 -9 5 -16 10 -16 6 0 10 -8 10 -18 0 -10 9 -24 20 -32 11 -8 20 -22 20 -32 0
-10 5 -18 10 -18 6 0 10 -9 10 -20 0 -11 5 -20 10 -20 6 0 10 -13 10 -30 0
-16 5 -30 10 -30 6 0 10 -9 10 -20 0 -11 5 -20 10 -20 6 0 10 -13 10 -30 0
-16 5 -30 10 -30 6 0 10 -18 10 -40 0 -22 5 -40 10 -40 6 0 10 -27 10 -60 0
-33 4 -60 10 -60 6 0 10 -57 10 -150 0 -93 -4 -150 -10 -150 -6 0 -10 -27 -10
-60 0 -33 -4 -60 -10 -60 -5 0 -10 -13 -10 -30 0 -16 -4 -30 -10 -30 -5 0 -10
-18 -10 -40 0 -22 -4 -40 -10 -40 -5 0 -10 -9 -10 -20 0 -11 -4 -20 -10 -20
-5 0 -10 -9 -10 -20 0 -11 -4 -20 -10 -20 -5 0 -10 -13 -10 -28 0 -16 -8 -34
-20 -42 -11 -8 -20 -22 -20 -32 0 -10 -4 -18 -10 -18 -5 0 -10 -8 -10 -18 0
-10 -9 -24 -20 -32 -11 -8 -20 -21 -20 -28 0 -7 -18 -31 -40 -52 -22 -21 -40
-43 -40 -49 0 -17 -107 -121 -124 -121 -8 0 -16 -6 -19 -12 -2 -8 -8 -9 -13
-4 -5 5 -4 11 4 13 7 3 12 24 12 54 0 27 5 49 10 49 6 0 10 53 10 140 0 87 -4
140 -10 140 -5 0 -10 23 -10 50 0 28 -4 50 -10 50 -5 0 -10 18 -10 40 0 22 -4
40 -10 40 -5 0 -10 14 -10 30 0 17 -4 30 -10 30 -5 0 -10 9 -10 19 0 11 -6 21
-12 24 -8 2 4 20 30 45 37 36 42 45 42 86 0 25 -4 46 -10 46 -18 0 -11 55 10
70 11 8 20 22 20 32 0 10 5 18 10 18 6 0 10 14 10 30 0 17 5 30 10 30 6 0 10
9 10 20 0 11 5 20 10 20 6 0 10 18 10 40 0 22 5 40 10 40 6 0 10 63 10 170 0
107 -4 170 -10 170 -5 0 -10 18 -10 40 0 22 -4 40 -10 40 -5 0 -10 14 -10 30
0 17 -4 30 -10 30 -5 0 -10 9 -10 20 0 11 -4 20 -10 20 -5 0 -10 11 -10 25 0
64 70 75 125 20z m-1385 -1675 c0 -5 23 -10 50 -10 28 0 50 -4 50 -10 0 -5 9
-10 20 -10 11 0 20 -4 20 -10 0 -5 9 -10 20 -10 11 0 20 -4 20 -10 0 -5 7 -10
15 -10 20 0 125 -105 125 -125 0 -8 5 -15 10 -15 6 0 10 -30 10 -70 0 -40 -4
-70 -10 -70 -5 0 -10 -8 -10 -18 0 -10 -9 -24 -20 -32 -11 -8 -20 -22 -20 -32
0 -10 -7 -18 -16 -18 -9 0 -29 -13 -44 -30 -15 -16 -35 -30 -44 -30 -9 0 -16
-4 -16 -10 0 -5 -13 -10 -30 -10 -16 0 -30 -4 -30 -10 0 -5 -18 -10 -40 -10
-22 0 -40 -4 -40 -10 0 -6 -40 -10 -100 -10 -60 0 -100 4 -100 10 0 6 -18 10
-40 10 -22 0 -40 5 -40 10 0 6 -13 10 -30 10 -16 0 -30 5 -30 10 0 6 -9 10
-20 10 -11 0 -20 5 -20 10 0 6 -7 10 -15 10 -20 0 -105 85 -105 105 0 8 -4 15
-10 15 -5 0 -10 9 -10 20 0 11 -4 20 -10 20 -5 0 -10 23 -10 50 0 28 5 50 10
50 6 0 10 9 10 20 0 11 5 20 10 20 6 0 10 7 10 15 0 19 64 85 82 85 8 0 20 9
28 20 8 11 22 20 32 20 10 0 18 5 18 10 0 6 14 10 30 10 17 0 30 5 30 10 0 6
18 10 40 10 22 0 40 5 40 10 0 6 37 10 90 10 53 0 90 -4 90 -10z m1040 -120
c0 -5 -4 -10 -10 -10 -5 0 -10 5 -10 10 0 6 5 10 10 10 6 0 10 -4 10 -10z
m-1660 -80 c0 -5 -4 -10 -10 -10 -5 0 -10 5 -10 10 0 6 5 10 10 10 6 0 10 -4
10 -10z m-473 -102 c-2 -18 -4 -4 -4 32 0 36 2 50 4 33 2 -18 2 -48 0 -65z
m80 -360 c-3 -8 -6 -5 -6 6 -1 11 2 17 5 13 3 -3 4 -12 1 -19z m787 -23 c-5
-12 -10 -13 -20 -4 -19 15 -18 19 6 19 13 0 18 -5 14 -15z m286 5 c0 -5 -4
-10 -10 -10 -5 0 -10 5 -10 10 0 6 5 10 10 10 6 0 10 -4 10 -10z m-965 -160
c3 -5 1 -10 -4 -10 -6 0 -11 5 -11 10 0 6 2 10 4 10 3 0 8 -4 11 -10z"/>
<path d="M1733 1695 c-17 -19 -16 -53 1 -71 31 -31 86 -8 86 36 0 44 -59 67
-87 35z"/>
<path d="M2233 1695 c-17 -19 -16 -53 1 -71 31 -31 86 -8 86 36 0 44 -59 67
-87 35z"/>
</g>
</svg>
